<svg width="50" height="45" viewBox="0 0 50 45" fill="none" xmlns="http://www.w3.org/2000/svg">
<rect x="35" y="10" width="5" height="5" fill="#3AD992"/>
<rect x="40" y="5" width="5" height="5" fill="#3AD992"/>
<rect x="45" width="5" height="5" fill="#3AD992"/>
<rect x="10" y="5" width="5" height="5" fill="#3AD992"/>
<rect x="5" width="5" height="5" fill="#3AD992"/>
<rect x="5" y="10" width="5" height="5" fill="#3AD992"/>
<rect y="5" width="5" height="5" fill="#3AD992"/>
<rect x="30" y="10" width="5" height="5" fill="#3AD992"/>
<rect x="35" y="5" width="5" height="5" fill="#3AD992"/>
<rect x="40" width="5" height="5" fill="#3AD992"/>
<rect x="5" y="5" width="5" height="5" fill="#3AD992"/>
<rect width="5" height="5" fill="#3AD992"/>
<rect x="25" y="15" width="5" height="5" fill="#3AD992"/>
<rect x="20" y="20" width="5" height="5" fill="#3AD992"/>
<rect x="15" y="20" width="5" height="5" fill="#3AD992"/>
<rect x="30" y="20" width="5" height="5" fill="#3AD992"/>
<rect x="15" y="25" width="5" height="5" fill="#3AD992"/>
<rect x="10" y="30" width="5" height="5" fill="#3AD992"/>
<rect x="10" y="25" width="5" height="5" fill="#3AD992"/>
<rect x="5" y="30" width="5" height="5" fill="#3AD992"/>
<rect y="35" width="5" height="5" fill="#3AD992"/>
<rect x="5" y="35" width="5" height="5" fill="#3AD992"/>
<rect y="40" width="5" height="5" fill="#3AD992"/>
<rect x="35" y="25" width="5" height="5" fill="#3AD992"/>
<rect x="40" y="30" width="5" height="5" fill="#3AD992"/>
<rect x="45" y="35" width="5" height="5" fill="#3AD992"/>
<rect x="40" y="35" width="5" height="5" fill="#3AD992"/>
<rect x="45" y="40" width="5" height="5" fill="#3AD992"/>
<rect x="15" y="30" width="5" height="5" fill="#3AD992"/>
<rect x="20" y="25" width="5" height="5" fill="#3AD992"/>
<rect x="25" y="20" width="5" height="5" fill="#3AD992"/>
<rect x="20" y="15" width="5" height="5" fill="#3AD992"/>
<rect x="15" y="10" width="5" height="5" fill="#3AD992"/>
<rect x="10" y="10" width="5" height="5" fill="#3AD992"/>
<rect x="10" y="15" width="5" height="5" fill="#3AD992"/>
<rect x="15" y="15" width="5" height="5" fill="#3AD992"/>
<rect x="25" y="25" width="5" height="5" fill="#3AD992"/>
<rect x="10" y="35" width="5" height="5" fill="#3AD992"/>
<rect x="5" y="40" width="5" height="5" fill="#3AD992"/>
<rect x="30" y="25" width="5" height="5" fill="#3AD992"/>
<rect x="30" y="30" width="5" height="5" fill="#3AD992"/>
<rect x="35" y="30" width="5" height="5" fill="#3AD992"/>
<rect x="35" y="35" width="5" height="5" fill="#3AD992"/>
<rect x="35" y="35" width="5" height="5" fill="#3AD992"/>
<rect x="40" y="40" width="5" height="5" fill="#3AD992"/>
<rect x="30" y="15" width="5" height="5" fill="#3AD992"/>
<rect x="35" y="15" width="5" height="5" fill="#3AD992"/>
<rect x="40" y="10" width="5" height="5" fill="#3AD992"/>
<rect x="45" y="5" width="5" height="5" fill="#3AD992"/>
</svg>
