<svg width="18" height="18" viewBox="0 0 18 18" fill="none" xmlns="http://www.w3.org/2000/svg">
<path fill-rule="evenodd" clip-rule="evenodd" d="M3 3.09376C3 2.86998 3.09031 2.65537 3.25105 2.49713C3.4118 2.3389 3.62981 2.25 3.85714 2.25H14.1429C14.3702 2.25 14.5882 2.3389 14.7489 2.49713C14.9097 2.65537 15 2.86998 15 3.09376V5.62505C15 5.84881 14.9096 6.06339 14.7489 6.22158L10.7143 10.1932V13.2189C10.7142 13.4427 10.6239 13.6572 10.4631 13.8154L8.74886 15.503C8.62898 15.6209 8.47627 15.7013 8.31003 15.7338C8.14378 15.7663 7.97147 15.7496 7.81487 15.6858C7.65827 15.6219 7.52441 15.5138 7.43023 15.3751C7.33604 15.2364 7.28575 15.0733 7.28571 14.9064V10.1932L3.25114 6.22158C3.09039 6.06339 3.00005 5.84881 3 5.62505V3.09376Z" fill="#E87230"/>
</svg>
